<svg xmlns="http://www.w3.org/2000/svg" height="48px" viewBox="0 -960 960 960" width="48px" fill="#FFFFFF"><path d="M347.69-310q-57.51-45-75.98-115H115q-25 0-40.5-16T59-480q0-23 15.5-39.5T115-536h156.71q18.47-69 75.98-114.5Q405.2-696 480-696q74.8 0 132.31 45.5Q669.82-605 689.29-536H846q23.88 0 39.94 16.5T902-480q0 23-16.06 39T846-425H689.29q-19.47 70-76.98 115Q554.8-265 480-265q-74.8 0-132.31-45Zm131.49-46Q531-356 568-392.18q37-36.17 37-87Q605-531 568.62-568q-36.38-37-88.5-37-51.12 0-87.62 36.38-36.5 36.38-36.5 88.5 0 51.12 36.18 87.62 36.17 36.5 87 36.5Z"/></svg>